<?xml version="1.0" standalone="no"?>
<!DOCTYPE svg PUBLIC "-//W3C//DTD SVG 20010904//EN"
 "http://www.w3.org/TR/2001/REC-SVG-20010904/DTD/svg10.dtd">
<svg version="1.0" xmlns="http://www.w3.org/2000/svg"
 width="35.000000pt" height="22.000000pt" viewBox="0 0 35.000000 22.000000"
 preserveAspectRatio="xMidYMid meet">

<g transform="translate(0.000000,22.000000) scale(0.100000,-0.100000)"
fill="#000000" stroke="none">
<path d="M0 110 l0 -110 175 0 175 0 0 110 0 110 -175 0 -175 0 0 -110z m192
32 c6 -22 14 -32 28 -32 14 0 20 -7 20 -24 0 -13 3 -31 6 -40 5 -14 -3 -16
-56 -16 -51 0 -61 3 -56 15 4 12 -3 15 -29 15 -30 0 -35 3 -35 24 0 13 -6 26
-12 29 -8 3 0 16 22 35 27 24 43 31 69 29 30 -2 36 -7 43 -35z"/>
<path d="M120 110 c0 -5 5 -10 10 -10 6 0 10 5 10 10 0 6 -4 10 -10 10 -5 0
-10 -4 -10 -10z"/>
<path d="M170 70 c0 -13 7 -20 20 -20 13 0 20 7 20 20 0 13 -7 20 -20 20 -13
0 -20 -7 -20 -20z"/>
</g>
</svg>
