<?xml version="1.0" standalone="no"?>
<!DOCTYPE svg PUBLIC "-//W3C//DTD SVG 20010904//EN"
 "http://www.w3.org/TR/2001/REC-SVG-20010904/DTD/svg10.dtd">
<svg version="1.0" xmlns="http://www.w3.org/2000/svg"
 width="512.000000pt" height="512.000000pt" viewBox="0 0 512.000000 512.000000"
 preserveAspectRatio="xMidYMid meet">

<g transform="translate(0.000000,512.000000) scale(0.100000,-0.100000)"
fill="#000000" stroke="none">
<path d="M1568 4280 c-208 -36 -397 -152 -514 -315 -69 -98 -104 -184 -194
-477 l-84 -278 -87 0 c-98 0 -99 0 -99 80 0 60 14 70 95 70 49 0 60 4 86 29
41 41 41 98 0 143 -29 33 -30 33 -123 33 -76 0 -100 -4 -133 -22 -97 -52 -134
-126 -135 -264 0 -87 3 -102 28 -150 47 -91 135 -139 253 -139 l40 0 -108
-125 c-240 -279 -256 -334 -251 -893 l3 -367 27 -56 c25 -49 80 -114 130 -151
14 -11 17 -38 20 -168 3 -141 6 -160 29 -210 34 -74 76 -120 141 -156 l53 -29
267 -3 268 -3 60 27 c69 31 131 93 163 162 18 39 22 71 25 185 l4 137 1028 0
1028 0 4 -137 c3 -114 7 -146 25 -185 32 -69 94 -131 163 -162 l60 -27 268 3
267 3 53 29 c65 36 107 82 141 156 23 50 26 69 29 209 l4 154 59 54 c35 33 69
77 86 111 l28 57 0 405 c0 391 -1 408 -23 483 -41 142 -81 206 -244 395 l-89
102 40 0 c118 0 206 48 253 139 25 48 28 63 28 150 -1 138 -38 212 -135 264
-33 18 -57 22 -133 22 -93 0 -94 0 -123 -33 -41 -45 -41 -102 0 -143 26 -25
37 -29 86 -29 81 0 95 -10 95 -70 0 -80 -1 -80 -99 -80 l-87 0 -84 278 c-85
279 -123 374 -182 460 -102 148 -255 257 -440 314 l-73 23 -975 1 c-536 1
-996 -2 -1022 -6z m2011 -222 c167 -52 290 -154 364 -303 14 -27 75 -212 137
-410 61 -198 118 -381 126 -406 11 -34 47 -84 131 -180 211 -243 225 -277 231
-566 l4 -203 -259 0 c-231 0 -262 2 -292 18 -55 30 -71 71 -71 183 0 83 3 101
23 130 40 60 72 69 249 69 l158 0 30 28 c57 51 42 146 -28 173 -16 6 -97 9
-207 7 -170 -3 -183 -4 -236 -29 -72 -34 -134 -96 -168 -168 -25 -53 -26 -64
-26 -216 l0 -160 34 -63 c38 -70 89 -119 160 -154 44 -22 56 -23 339 -26 l292
-3 0 -55 c0 -71 -21 -119 -62 -144 -32 -19 -49 -20 -600 -20 l-568 0 0 193 c0
173 -2 195 -20 224 -12 21 -32 36 -57 43 -27 8 -245 10 -726 8 l-689 -3 -29
-33 -29 -32 0 -200 0 -200 -576 0 -576 0 -39 39 c-38 38 -39 40 -39 110 l0 71
275 0 c320 0 345 5 438 90 78 71 108 143 115 276 11 219 -47 341 -200 421 -51
26 -60 28 -231 31 -98 2 -189 1 -203 -2 -75 -19 -100 -121 -45 -177 l29 -29
159 -1 c181 0 217 -9 250 -58 20 -30 23 -46 23 -138 0 -118 -12 -152 -63 -183
-30 -18 -52 -20 -290 -20 l-259 0 4 218 c3 208 5 220 30 279 35 82 66 127 200
280 l113 130 119 389 c65 214 135 423 154 464 77 165 260 297 447 323 17 2
451 4 965 3 838 -2 941 -4 989 -18z m-459 -2368 l0 -130 -560 0 -560 0 0 130
0 130 560 0 560 0 0 -130z m-1800 -442 c0 -121 -12 -164 -53 -188 -29 -18 -52
-20 -234 -20 -111 0 -213 4 -226 9 -14 6 -35 20 -46 32 -19 20 -21 35 -21 141
l0 118 290 0 290 0 0 -92z m3060 -18 c0 -187 -5 -190 -290 -190 -279 0 -290 8
-290 200 l0 100 290 0 290 0 0 -110z"/>
<path d="M1228 3194 c-68 -37 -75 -127 -14 -176 20 -16 106 -18 1347 -18
l1326 0 26 24 c34 32 44 84 23 125 -34 65 57 61 -1378 61 -1133 -1 -1307 -3
-1330 -16z"/>
<path d="M1618 2571 c-28 -25 -33 -36 -33 -76 0 -40 5 -51 33 -76 l32 -29 910
0 910 0 32 29 c28 25 33 36 33 76 0 40 -5 51 -33 76 l-32 29 -910 0 -910 0
-32 -29z"/>
</g>
</svg>
