<?xml version="1.0" standalone="no"?>
<!DOCTYPE svg PUBLIC "-//W3C//DTD SVG 20010904//EN"
 "http://www.w3.org/TR/2001/REC-SVG-20010904/DTD/svg10.dtd">
<svg version="1.0" xmlns="http://www.w3.org/2000/svg"
 width="512.000000pt" height="512.000000pt" viewBox="0 0 512.000000 512.000000"
 preserveAspectRatio="xMidYMid meet">

<g transform="translate(0.000000,512.000000) scale(0.100000,-0.100000)"
fill="#000000" stroke="none">
<path d="M388 4842 c-55 -28 -157 -122 -185 -169 -56 -96 -53 20 -53 -2147 0
-1293 4 -2014 10 -2043 17 -72 46 -118 96 -151 25 -17 65 -33 88 -36 121 -15
2061 -28 2881 -20 490 5 913 8 940 8 456 -5 438 -5 505 15 36 12 75 21 88 21
37 0 95 35 139 83 57 62 77 131 71 253 -4 86 -7 99 -50 186 -78 154 -171 252
-503 523 -118 97 -290 257 -560 525 -424 419 -612 603 -980 955 -131 127 -428
414 -660 639 -757 737 -1224 1170 -1362 1262 -125 83 -219 114 -348 114 -59 0
-91 -5 -117 -18z m222 -63 c98 -27 172 -67 250 -137 l64 -58 -37 -23 c-20 -12
-44 -33 -54 -46 l-18 -25 -70 80 c-107 123 -237 220 -294 220 -11 0 -23 5 -27
11 -9 16 88 4 186 -22z m-132 -146 c21 -10 122 -102 232 -213 107 -108 319
-313 470 -456 151 -142 459 -439 685 -659 599 -584 1332 -1279 1790 -1699 72
-66 162 -150 200 -188 77 -75 249 -228 362 -320 67 -54 76 -58 108 -52 48 9
95 42 124 86 l24 37 26 -20 c45 -35 231 -204 231 -209 0 -3 -21 -16 -47 -30
-31 -16 -55 -39 -69 -63 l-21 -38 -79 60 c-43 34 -106 83 -139 111 -33 27 -64
49 -70 50 -16 0 133 -146 250 -245 136 -115 200 -199 206 -270 8 -100 -17
-137 -106 -160 -51 -13 -102 -15 -333 -9 l-273 7 6 56 c8 71 -9 178 -33 211
-26 35 -52 31 -76 -10 -17 -29 -21 -55 -23 -145 l-3 -110 -162 -3 -163 -2 0
122 c0 106 -3 128 -21 158 -12 20 -28 35 -39 35 -11 0 -27 -15 -39 -35 -18
-30 -21 -52 -21 -158 l0 -122 -197 0 -198 0 0 68 c0 117 -34 192 -79 177 -35
-11 -54 -68 -54 -163 l-1 -82 -223 2 -224 3 -2 105 c-3 157 -47 229 -99 160
-24 -33 -41 -140 -34 -210 l6 -55 -182 3 c-101 2 -184 4 -185 5 -1 1 3 36 9
77 20 140 -26 295 -79 264 -38 -22 -58 -83 -58 -179 0 -49 4 -103 8 -119 l8
-29 -53 6 c-29 4 -121 7 -203 7 l-151 0 1 87 c0 102 -23 178 -58 189 -46 15
-80 -71 -76 -194 l2 -77 -26 1 c-15 0 -100 1 -189 2 l-163 2 0 132 c0 113 -3
139 -20 173 -13 27 -27 40 -40 40 -13 0 -27 -13 -40 -40 -17 -33 -20 -63 -22
-170 l-2 -130 -243 0 c-134 0 -255 3 -270 8 -64 17 -59 -148 -58 2087 1 2225
-3 2082 58 2130 31 25 91 26 140 3z m744 -396 c-20 -11 -47 -29 -59 -40 l-23
-20 -62 58 c-35 32 -87 83 -116 113 l-53 54 40 34 c22 19 43 44 46 56 6 18 23
5 136 -108 l129 -129 -38 -18z m348 -297 c0 -3 -14 -14 -31 -24 -17 -10 -35
-29 -41 -42 -11 -23 -14 -21 -132 94 l-121 117 45 46 45 46 118 -116 c64 -64
117 -118 117 -121z m341 -392 c-17 -15 -37 -38 -45 -50 -16 -23 -17 -22 -159
121 -99 100 -138 145 -127 149 8 2 31 22 50 42 l35 38 138 -137 137 -136 -29
-27z m242 -184 l118 -122 -31 -11 c-17 -5 -43 -20 -57 -31 l-27 -21 -113 113
-113 112 29 19 c16 10 37 29 46 43 9 14 20 24 23 22 4 -2 61 -58 125 -124z
m476 -510 c-10 -11 -27 -36 -36 -56 l-18 -36 -156 152 -156 153 24 23 c13 13
31 36 39 52 l15 29 153 -148 c152 -147 153 -148 135 -169z m169 -95 c19 -17
55 -57 79 -90 24 -32 63 -74 86 -93 l41 -34 -36 -40 c-19 -21 -38 -45 -41 -53
-3 -9 -51 32 -140 120 l-136 134 42 30 c23 17 46 36 50 44 11 18 15 17 55 -18z
m416 -424 l110 -104 -45 -50 c-24 -27 -46 -49 -49 -50 -3 -1 -59 53 -124 118
l-119 119 47 20 c25 12 49 28 52 36 3 9 9 16 13 15 3 0 55 -47 115 -104z m344
-333 l143 -137 -62 -44 -61 -43 -129 128 -129 128 40 41 c22 22 40 46 40 53 0
7 3 12 8 12 4 -1 71 -63 150 -138z m297 -283 c77 -66 175 -157 175 -162 0 -2
-27 -23 -59 -46 -33 -22 -62 -47 -64 -54 -3 -7 -54 38 -121 107 -64 66 -115
120 -114 121 61 36 108 69 108 76 0 17 15 8 75 -42z m291 -270 c10 -12 67 -61
125 -109 l106 -86 -53 -48 c-30 -26 -57 -58 -60 -72 -4 -14 -10 -24 -14 -22
-4 2 -67 60 -140 129 l-133 127 35 16 c19 9 50 32 68 51 19 19 37 35 40 35 4
0 15 -10 26 -21z m696 -632 c44 -76 61 -136 61 -217 0 -84 -27 -153 -78 -200
l-28 -25 19 35 c23 44 23 139 0 193 -8 21 -45 69 -81 106 l-66 68 29 12 c16 7
44 28 63 47 18 19 38 33 43 31 6 -2 23 -24 38 -50z"/>
<path d="M994 3140 c-11 -4 -32 -22 -46 -38 -23 -28 -25 -38 -31 -188 -4 -88
-7 -411 -7 -719 0 -437 -3 -587 -15 -680 -17 -139 -19 -235 -5 -285 15 -53 64
-105 128 -137 57 -28 58 -28 332 -35 745 -21 937 -21 1135 -2 105 10 204 17
220 16 137 -10 202 0 243 39 26 23 29 76 7 105 -8 10 -15 31 -15 46 0 17 -17
48 -49 85 -97 115 -1766 1769 -1803 1786 -39 19 -62 20 -94 7z m468 -570 c359
-349 930 -890 1148 -1087 187 -169 287 -274 296 -310 8 -32 -10 -48 -81 -68
-92 -26 -109 -29 -101 -16 5 8 -25 11 -111 11 -164 0 -499 17 -813 41 -146 11
-360 24 -476 28 -237 8 -263 16 -296 81 -21 41 -24 140 -7 221 13 61 15 133
17 933 l2 569 60 -54 c32 -30 196 -187 362 -349z"/>
</g>
</svg>
