<?xml version="1.0" encoding="UTF-8"?>
<svg version="1.1" viewBox="0 0 2048 1140" width="1280" height="1280" xmlns="http://www.w3.org/2000/svg">
<path transform="translate(756,416)" d="m0 0h7l8 4 10 9 23 23 7 8 41 41 8 7 34 34 5 4 6 7 8 7 104 104 6 5 4-1 246-246 12-6h9l6 4 23 23 7 8 7 9 1 3v8l-3 8-12 14-20 20-7 8-47 47-7 6-7 8-20 20h-2l-2 4-58 58-16 15-15 16-77 77-9 8-10 4-7-1-7-2-9-8-7-8-57-57v-2h-2l-7-8-12-11-7-7-7-8-10-9-7-8-9-9-8-7-7-8-11-11-6-5-7-8-10-10-8-7-9-10-32-32-8-7-55-55-6-9-2-10 2-9 9-11 8-7 13-13 5-6 5-4z"/>
</svg>
